<svg width="128" height="128" viewBox="0 0 128 128" fill="none" xmlns="http://www.w3.org/2000/svg">
<g clip-path="url(#clip0_49_3826)">
<path d="M36.4337 36.3962C47.4865 36.3962 57.0218 42.8926 61.4298 52.2756H64.0002V-0.000854492C28.8908 -0.000854492 0.000183105 28.8898 0.000183105 63.9991C0.000183105 99.1085 28.8908 127.999 64.0002 127.999V75.7227H61.4298C57.0218 85.1057 47.4865 91.6021 36.4337 91.6021C21.1892 91.6021 8.83071 79.2437 8.83071 63.9991C8.83071 48.7546 21.1892 36.3962 36.4337 36.3962Z" fill="#F8FFE0"/>
<path d="M97.0921 60.0916C97.0631 60.0911 97.0347 60.0911 97.0057 60.0911H55.4224C53.6143 51.2596 45.7997 44.6163 36.4337 44.6163C25.7291 44.6163 17.0509 53.2945 17.0509 63.9991C17.0509 74.7038 25.7291 83.382 36.4337 83.382C45.7997 83.382 53.6143 76.7387 55.4224 67.9072H97.0921V67.9127C101.434 67.9591 104.94 71.4935 104.94 75.8466C104.94 80.1997 101.388 83.7811 97.0057 83.7811C92.6236 83.7811 89.0713 80.2287 89.0713 75.8466H81.2502C81.2502 84.4898 88.3625 91.6021 97.0057 91.6021C105.649 91.6021 112.761 84.4898 112.761 75.8466C112.761 67.2034 105.696 60.1386 97.0921 60.0916ZM40.9801 63.9991C40.9801 61.5077 38.9606 59.4882 36.4692 59.4882C33.9777 59.4882 31.9583 61.5077 31.9583 63.9991H24.9374C24.9374 57.6731 30.1431 52.4674 36.4692 52.4674C42.7953 52.4674 48.0005 57.6731 48.0005 63.9991H40.9801Z" fill="#F8FFE0"/>
</g>
<defs>
<clipPath id="clip0_49_3826">
<rect width="112.761" height="128" fill="white"/>
</clipPath>
</defs>
</svg>
